# xmcd CD database file
#
# Track frame offsets:
#	150
#	18733
#	36208
#	64562
#	84495
#	112225
#	130642
#	154670
#	185691
#	222536
#
# Disc length: 3193 seconds
#
# Revision: 0
# Processed by: cddbd v1.5.2PL0 Copyright (c) Steve Scherf et al.
# Submitted via: CDex 1.70beta2
#
DISCID=8c0c770a
DTITLE=Travers, Pat - Halfway to Somewhere
DYEAR=1995
DGENRE=Blues
TTITLE0=Just Enough Money
TTITLE1=Time Out
TTITLE2=Walk In My Shoes
TTITLE3=Steppin Out
TTITLE4=Look Me Up
TTITLE5=Party Tonight
TTITLE6=Just Like A Dream
TTITLE7=Hard Times
TTITLE8=No Escape
TTITLE9=Freight Train
EXTD=YEAR: 1995
EXTT0=
EXTT1=
EXTT2=
EXTT3=
EXTT4=
EXTT5=
EXTT6=
EXTT7=
EXTT8=
EXTT9=
PLAYORDER=
